<?xml version="1.0" encoding="UTF-8"?>
<svg width="196px" height="30px" viewBox="0 0 196 30" version="1.1" xmlns="http://www.w3.org/2000/svg" xmlns:xlink="http://www.w3.org/1999/xlink">
    <!-- Generator: Sketch 63.1 (92452) - https://sketch.com -->
    <title>NEWSMEDIA</title>
    <desc>Created with Sketch.</desc>
    <g id="Fixed_Grid" stroke="none" stroke-width="1" fill="none" fill-rule="evenodd">
        <g id="Article-Dashboard" transform="translate(-55.000000, -85.000000)" fill="#FFFFFF" fill-rule="nonzero">
            <path d="M60.5636364,114 L60.5636364,98.962963 L66.6,114 L71,114 L71,85 L65.6181818,85 L65.6181818,98.962963 L59.5818182,85 L55,85 L55,114 L60.5636364,114 Z M92,114 L92,109.667901 L85.3579235,109.667901 L85.3579235,101.003704 L90.3661202,101.003704 L90.3661202,96.5641975 L85.3579235,96.5641975 L85.3579235,89.3679012 L91.9289617,89.3679012 L91.9289617,85 L79,85 L79,114 L92,114 Z M106.157076,114 L108.482115,96.4925926 L110.950233,114 L116.530327,114 L120,85 L114.634526,85 L112.881804,101.791358 L110.592535,85.0358025 L106.335925,85.0358025 L104.153966,101.898765 L102.437014,85 L97,85 L100.505443,114 L106.157076,114 Z M134.377528,115 C135.935581,115 137.283895,114.67587 138.422472,114.027611 C139.561049,113.379352 140.441948,112.496999 141.065169,111.380552 C141.68839,110.264106 142,109.021609 142,107.653061 C142,105.636255 141.562547,103.943577 140.68764,102.57503 C139.812734,101.206483 138.740075,99.9819928 137.469663,98.9015606 L137.469663,98.9015606 L135.060674,96.7767107 C134.221723,96.032413 133.544569,95.3181273 133.029213,94.6338535 C132.513858,93.9495798 132.25618,93.0672269 132.25618,91.9867947 C132.25618,91.482593 132.394007,90.9783914 132.669663,90.4741897 C132.945318,89.969988 133.382772,89.7178872 133.982022,89.7178872 C134.533333,89.7178872 134.940824,89.8919568 135.204494,90.240096 C135.468165,90.5882353 135.641948,91.0804322 135.725843,91.7166867 C135.809738,92.3529412 135.86367,93.1032413 135.88764,93.967587 L135.88764,93.967587 L141.424719,93.2833133 C141.400749,92.4189676 141.298876,91.512605 141.119101,90.5642257 C140.939326,89.6158463 140.603745,88.7154862 140.11236,87.8631453 C139.620974,87.0108043 138.901873,86.3205282 137.955056,85.7923169 C137.00824,85.2641056 135.755805,85 134.197753,85 C131.680899,85 129.691386,85.6542617 128.229213,86.9627851 C126.767041,88.2713085 126.035955,90.1620648 126.035955,92.635054 C126.035955,94.3877551 126.413483,95.8583433 127.168539,97.0468187 C127.923596,98.2352941 128.852434,99.2977191 129.955056,100.234094 L129.955056,100.234094 L132.47191,102.430972 C133.454682,103.271309 134.233708,104.105642 134.808989,104.933974 C135.38427,105.762305 135.67191,106.776711 135.67191,107.977191 C135.67191,108.481393 135.570037,108.961585 135.366292,109.417767 C135.162547,109.87395 134.725094,110.102041 134.053933,110.102041 C133.526592,110.102041 133.077154,109.933974 132.705618,109.597839 C132.334082,109.261705 132.046442,108.709484 131.842697,107.941176 C131.638951,107.172869 131.525094,106.164466 131.501124,104.915966 L131.501124,104.915966 L126,105.744298 C126.07191,107.905162 126.419476,109.663866 127.042697,111.020408 C127.665918,112.376951 128.588764,113.379352 129.811236,114.027611 C131.033708,114.67587 132.555805,115 134.377528,115 Z M152.591525,114 L153.018644,94.5592593 L156.577966,114 L160.6,114 L163.945763,94.7024691 L164.479661,114 L169,114 L168.501695,85 L161.916949,85 L158.5,101.862963 L155.332203,85 L148.498305,85 L148,114 L152.591525,114 Z M189,114 L189,109.667901 L182.357923,109.667901 L182.357923,101.003704 L187.36612,101.003704 L187.36612,96.5641975 L182.357923,96.5641975 L182.357923,89.3679012 L188.928962,89.3679012 L188.928962,85 L176,85 L176,114 L189,114 Z M203.377358,114 C205.872117,114 207.814465,113.677778 209.204403,113.033333 C210.59434,112.388889 211.574423,111.380453 212.144654,110.008025 C212.714885,108.635597 213,106.863374 213,104.691358 L213,104.691358 L213,94.1654321 C213,92.017284 212.714885,90.26893 212.144654,88.9203704 C211.574423,87.5718107 210.5884,86.5812757 209.186583,85.9487654 C207.784766,85.3162551 205.824598,85 203.30608,85 L203.30608,85 L196,85 L196,114 L203.377358,114 Z M202.982456,110 L202,110 L202,90 L202.947368,90 C203.883041,90 204.561404,90.1188354 204.982456,90.3565062 C205.403509,90.5941771 205.678363,90.9744504 205.807018,91.4973262 C205.935673,92.020202 206,92.7094474 206,93.5650624 L206,93.5650624 L206,106.149733 C206,107.005348 205.947368,107.71836 205.842105,108.28877 C205.736842,108.85918 205.473684,109.286988 205.052632,109.572193 C204.631579,109.857398 203.94152,110 202.982456,110 L202.982456,110 Z M226,114 L226,85 L220,85 L220,114 L226,114 Z M238.988189,114 L239.980315,107.877778 L244.19685,107.877778 L245.153543,114 L251,114 L245.649606,85 L238.42126,85 L233,114 L238.988189,114 Z M243,104 L240,104 L241.5,93 L243,104 Z" id="NEWSMEDIA"></path>
        </g>
    </g>
</svg>